<?xml version="1.0" encoding="UTF-8"?>
<svg xmlns="http://www.w3.org/2000/svg" width="1480" height="760" viewBox="0 0 1480 760">
  <defs>
    <linearGradient id="heroBg" x1="0" y1="0" x2="1" y2="1">
      <stop offset="0%" stop-color="#f4efe6"/>
      <stop offset="100%" stop-color="#e9dcc8"/>
    </linearGradient>
  </defs>
  <rect width="1480" height="760" rx="30" fill="url(#heroBg)"/>
  <rect x="52" y="52" width="1376" height="656" rx="28" fill="#fffdf8" opacity="0.92"/>
  <text x="86" y="128" fill="#10202a" font-size="48" font-weight="700" font-family="'Segoe UI', sans-serif">Open Scrapers Toolkit</text>
  <text x="86" y="176" fill="#52626d" font-size="24" font-family="'Segoe UI', sans-serif">Starter catalog coverage across news, weather, reports, and academic sources.</text>
  <text x="86" y="214" fill="#7a6f63" font-size="18" font-family="'Segoe UI', sans-serif">Generated from the live CLI catalog so the wiki artwork stays in sync with the real project.</text>
  
  <rect x="68" y="250" width="320" height="172" rx="24" fill="#fffaf1"/>
  <rect x="68" y="250" width="320" height="18" rx="24" fill="#d16939"/>
  <text x="94" y="320" fill="#4f5c67" font-size="20" font-family="'Segoe UI', sans-serif">News</text>
  <text x="94" y="378" fill="#10202a" font-size="46" font-weight="700" font-family="'Segoe UI', sans-serif">4</text>
  <text x="178" y="376" fill="#72818d" font-size="20" font-family="'Segoe UI', sans-serif">starter scrapers</text>

  <rect x="414" y="250" width="320" height="172" rx="24" fill="#fffaf1"/>
  <rect x="414" y="250" width="320" height="18" rx="24" fill="#1d6b73"/>
  <text x="440" y="320" fill="#4f5c67" font-size="20" font-family="'Segoe UI', sans-serif">Weather</text>
  <text x="440" y="378" fill="#10202a" font-size="46" font-weight="700" font-family="'Segoe UI', sans-serif">2</text>
  <text x="524" y="376" fill="#72818d" font-size="20" font-family="'Segoe UI', sans-serif">starter scrapers</text>

  <rect x="760" y="250" width="320" height="172" rx="24" fill="#fffaf1"/>
  <rect x="760" y="250" width="320" height="18" rx="24" fill="#4f6d5a"/>
  <text x="786" y="320" fill="#4f5c67" font-size="20" font-family="'Segoe UI', sans-serif">Reports</text>
  <text x="786" y="378" fill="#10202a" font-size="46" font-weight="700" font-family="'Segoe UI', sans-serif">5</text>
  <text x="870" y="376" fill="#72818d" font-size="20" font-family="'Segoe UI', sans-serif">starter scrapers</text>

  <rect x="1106" y="250" width="320" height="172" rx="24" fill="#fffaf1"/>
  <rect x="1106" y="250" width="320" height="18" rx="24" fill="#8b5a8c"/>
  <text x="1132" y="320" fill="#4f5c67" font-size="20" font-family="'Segoe UI', sans-serif">Academic</text>
  <text x="1132" y="378" fill="#10202a" font-size="46" font-weight="700" font-family="'Segoe UI', sans-serif">4</text>
  <text x="1216" y="376" fill="#72818d" font-size="20" font-family="'Segoe UI', sans-serif">starter scrapers</text>
  <rect x="86" y="490" width="1308" height="188" rx="24" fill="#10202a"/>
  <text x="122" y="548" fill="#fff8eb" font-size="26" font-weight="700" font-family="'Segoe UI', sans-serif">15 scrapers ship in the current toolkit build</text>
  <text x="122" y="590" fill="#9fb7bc" font-size="20" font-family="'Segoe UI', sans-serif">Use npx tsx src/cli.ts list --format json for machine-readable catalog output.</text>
  <text x="122" y="628" fill="#d8f2f2" font-size="18" font-family="'Cascadia Mono', Consolas, monospace">npx tsx src/cli.ts run-all --category weather --limit 6 --out-dir output/weather</text>
</svg>